<mxfile host="app.diagrams.net" modified="2023-09-11T23:16:54.565Z" agent="Mozilla/5.0 (Windows NT 10.0; Win64; x64) AppleWebKit/537.36 (KHTML, like Gecko) Chrome/116.0.0.0 Safari/537.36 Edg/116.0.1938.76" etag="1wDnx2fQmn8bMJ8o8Cq9" version="21.7.4" type="device">
  <diagram name="PÃ¡gina-1" id="GiQ2mStSw5bxP4Iqj18Y">
    <mxGraphModel dx="869" dy="498" grid="1" gridSize="10" guides="1" tooltips="1" connect="1" arrows="1" fold="1" page="1" pageScale="1" pageWidth="827" pageHeight="1169" math="0" shadow="0">
      <root>
        <mxCell id="0" />
        <mxCell id="1" parent="0" />
        <mxCell id="8Foohfjr51xUMp0vrfl8-1" value="" style="ellipse;html=1;shape=startState;fillColor=#000000;strokeColor=#ff0000;" parent="1" vertex="1">
          <mxGeometry x="50" y="390" width="30" height="30" as="geometry" />
        </mxCell>
        <mxCell id="8Foohfjr51xUMp0vrfl8-2" value="" style="edgeStyle=orthogonalEdgeStyle;html=1;verticalAlign=bottom;endArrow=open;endSize=8;strokeColor=#ff0000;rounded=0;" parent="1" source="8Foohfjr51xUMp0vrfl8-1" target="8Foohfjr51xUMp0vrfl8-3" edge="1">
          <mxGeometry relative="1" as="geometry">
            <mxPoint x="170" y="470" as="targetPoint" />
          </mxGeometry>
        </mxCell>
        <mxCell id="8Foohfjr51xUMp0vrfl8-7" value="" style="edgeStyle=orthogonalEdgeStyle;rounded=0;orthogonalLoop=1;jettySize=auto;html=1;entryX=0.5;entryY=0;entryDx=0;entryDy=0;" parent="1" source="8Foohfjr51xUMp0vrfl8-3" target="8Foohfjr51xUMp0vrfl8-8" edge="1">
          <mxGeometry relative="1" as="geometry">
            <mxPoint x="170" y="595" as="targetPoint" />
          </mxGeometry>
        </mxCell>
        <mxCell id="8Foohfjr51xUMp0vrfl8-3" value="&lt;font style=&quot;vertical-align: inherit;&quot;&gt;&lt;font style=&quot;vertical-align: inherit;&quot;&gt;Visualizar Produtos&lt;/font&gt;&lt;/font&gt;" style="rounded=1;whiteSpace=wrap;html=1;arcSize=40;fontColor=#000000;fillColor=#ffffc0;strokeColor=#ff0000;" parent="1" vertex="1">
          <mxGeometry x="110" y="485" width="120" height="40" as="geometry" />
        </mxCell>
        <mxCell id="8Foohfjr51xUMp0vrfl8-39" style="edgeStyle=orthogonalEdgeStyle;rounded=0;orthogonalLoop=1;jettySize=auto;html=1;entryX=0;entryY=0.5;entryDx=0;entryDy=0;" parent="1" source="8Foohfjr51xUMp0vrfl8-8" target="8Foohfjr51xUMp0vrfl8-14" edge="1">
          <mxGeometry relative="1" as="geometry" />
        </mxCell>
        <mxCell id="8Foohfjr51xUMp0vrfl8-8" value="&lt;font style=&quot;vertical-align: inherit;&quot;&gt;&lt;font style=&quot;vertical-align: inherit;&quot;&gt;Selecionar o Produto&lt;/font&gt;&lt;/font&gt;" style="rhombus;whiteSpace=wrap;html=1;fontColor=#000000;fillColor=#ffffc0;strokeColor=#ff0000;" parent="1" vertex="1">
          <mxGeometry x="130" y="600" width="90" height="50" as="geometry" />
        </mxCell>
        <mxCell id="8Foohfjr51xUMp0vrfl8-10" value="yes" style="edgeStyle=orthogonalEdgeStyle;html=1;align=left;verticalAlign=top;endArrow=open;endSize=8;strokeColor=#ff0000;rounded=0;entryX=0.75;entryY=0;entryDx=0;entryDy=0;" parent="1" source="8Foohfjr51xUMp0vrfl8-8" target="8Foohfjr51xUMp0vrfl8-11" edge="1">
          <mxGeometry x="-1" relative="1" as="geometry">
            <mxPoint x="130" y="760" as="targetPoint" />
          </mxGeometry>
        </mxCell>
        <mxCell id="8Foohfjr51xUMp0vrfl8-41" style="edgeStyle=orthogonalEdgeStyle;rounded=0;orthogonalLoop=1;jettySize=auto;html=1;" parent="1" source="8Foohfjr51xUMp0vrfl8-11" target="8Foohfjr51xUMp0vrfl8-20" edge="1">
          <mxGeometry relative="1" as="geometry" />
        </mxCell>
        <mxCell id="8Foohfjr51xUMp0vrfl8-11" value="&lt;font style=&quot;vertical-align: inherit;&quot;&gt;&lt;font style=&quot;vertical-align: inherit;&quot;&gt;Adicionar produto ao carrinho&lt;/font&gt;&lt;/font&gt;" style="rounded=1;whiteSpace=wrap;html=1;arcSize=40;fontColor=#000000;fillColor=#ffffc0;strokeColor=#ff0000;" parent="1" vertex="1">
          <mxGeometry x="40" y="770" width="120" height="40" as="geometry" />
        </mxCell>
        <mxCell id="8Foohfjr51xUMp0vrfl8-43" style="edgeStyle=orthogonalEdgeStyle;rounded=0;orthogonalLoop=1;jettySize=auto;html=1;exitX=1;exitY=0.5;exitDx=0;exitDy=0;" parent="1" source="8Foohfjr51xUMp0vrfl8-14" target="8Foohfjr51xUMp0vrfl8-42" edge="1">
          <mxGeometry relative="1" as="geometry" />
        </mxCell>
        <mxCell id="8Foohfjr51xUMp0vrfl8-14" value="&lt;font style=&quot;vertical-align: inherit;&quot;&gt;&lt;font style=&quot;vertical-align: inherit;&quot;&gt;fechar sistema&lt;/font&gt;&lt;/font&gt;" style="rounded=1;whiteSpace=wrap;html=1;arcSize=40;fontColor=#000000;fillColor=#ffffc0;strokeColor=#ff0000;" parent="1" vertex="1">
          <mxGeometry x="390" y="410" width="120" height="40" as="geometry" />
        </mxCell>
        <mxCell id="8Foohfjr51xUMp0vrfl8-15" value="" style="edgeStyle=orthogonalEdgeStyle;html=1;verticalAlign=bottom;endArrow=open;endSize=8;strokeColor=#ff0000;rounded=0;entryX=0.5;entryY=0;entryDx=0;entryDy=0;" parent="1" source="8Foohfjr51xUMp0vrfl8-14" target="8Foohfjr51xUMp0vrfl8-16" edge="1">
          <mxGeometry relative="1" as="geometry">
            <mxPoint x="450" y="510" as="targetPoint" />
          </mxGeometry>
        </mxCell>
        <mxCell id="8Foohfjr51xUMp0vrfl8-16" value="&lt;font style=&quot;vertical-align: inherit;&quot;&gt;&lt;font style=&quot;vertical-align: inherit;&quot;&gt;Finalizar Compra&lt;/font&gt;&lt;/font&gt;" style="rounded=1;whiteSpace=wrap;html=1;arcSize=40;fontColor=#000000;fillColor=#ffffc0;strokeColor=#ff0000;" parent="1" vertex="1">
          <mxGeometry x="414" y="560" width="120" height="40" as="geometry" />
        </mxCell>
        <mxCell id="8Foohfjr51xUMp0vrfl8-17" value="" style="edgeStyle=orthogonalEdgeStyle;html=1;verticalAlign=bottom;endArrow=open;endSize=8;strokeColor=#ff0000;rounded=0;entryX=0.5;entryY=0;entryDx=0;entryDy=0;exitX=0.607;exitY=1.006;exitDx=0;exitDy=0;exitPerimeter=0;" parent="1" source="8Foohfjr51xUMp0vrfl8-16" target="8Foohfjr51xUMp0vrfl8-18" edge="1">
          <mxGeometry relative="1" as="geometry">
            <mxPoint x="474" y="660" as="targetPoint" />
            <Array as="points">
              <mxPoint x="480" y="600" />
            </Array>
          </mxGeometry>
        </mxCell>
        <mxCell id="8Foohfjr51xUMp0vrfl8-18" value="&lt;font style=&quot;vertical-align: inherit;&quot;&gt;&lt;font style=&quot;vertical-align: inherit;&quot;&gt;Fornecer Detalhes&lt;/font&gt;&lt;/font&gt;" style="rounded=1;whiteSpace=wrap;html=1;arcSize=40;fontColor=#000000;fillColor=#ffffc0;strokeColor=#ff0000;" parent="1" vertex="1">
          <mxGeometry x="420" y="730" width="120" height="40" as="geometry" />
        </mxCell>
        <mxCell id="8Foohfjr51xUMp0vrfl8-19" value="" style="edgeStyle=orthogonalEdgeStyle;html=1;verticalAlign=bottom;endArrow=open;endSize=8;strokeColor=#ff0000;rounded=0;entryX=0.5;entryY=0;entryDx=0;entryDy=0;" parent="1" source="8Foohfjr51xUMp0vrfl8-18" target="8Foohfjr51xUMp0vrfl8-23" edge="1">
          <mxGeometry relative="1" as="geometry">
            <mxPoint x="480" y="830" as="targetPoint" />
            <Array as="points">
              <mxPoint x="480" y="800" />
              <mxPoint x="481" y="860" />
            </Array>
          </mxGeometry>
        </mxCell>
        <mxCell id="8Foohfjr51xUMp0vrfl8-20" value="&lt;font style=&quot;vertical-align: inherit;&quot;&gt;&lt;font style=&quot;vertical-align: inherit;&quot;&gt;Continuar comprando&lt;br&gt;&lt;/font&gt;&lt;/font&gt;" style="rhombus;whiteSpace=wrap;html=1;fontColor=#000000;fillColor=#ffffc0;strokeColor=#ff0000;" parent="1" vertex="1">
          <mxGeometry x="240" y="760" width="90" height="70" as="geometry" />
        </mxCell>
        <mxCell id="8Foohfjr51xUMp0vrfl8-21" value="no" style="edgeStyle=orthogonalEdgeStyle;html=1;align=left;verticalAlign=bottom;endArrow=open;endSize=8;strokeColor=#ff0000;rounded=0;" parent="1" source="8Foohfjr51xUMp0vrfl8-20" edge="1" target="8Foohfjr51xUMp0vrfl8-16">
          <mxGeometry x="-1" relative="1" as="geometry">
            <mxPoint x="380" y="670" as="targetPoint" />
            <Array as="points">
              <mxPoint x="380" y="780" />
              <mxPoint x="380" y="580" />
            </Array>
          </mxGeometry>
        </mxCell>
        <mxCell id="8Foohfjr51xUMp0vrfl8-22" value="yes" style="edgeStyle=orthogonalEdgeStyle;html=1;align=left;verticalAlign=top;endArrow=open;endSize=8;strokeColor=#ff0000;rounded=0;entryX=0;entryY=0.5;entryDx=0;entryDy=0;" parent="1" source="8Foohfjr51xUMp0vrfl8-20" target="8Foohfjr51xUMp0vrfl8-3" edge="1">
          <mxGeometry x="-1" relative="1" as="geometry">
            <mxPoint x="280" y="860" as="targetPoint" />
            <Array as="points">
              <mxPoint x="20" y="820" />
              <mxPoint x="20" y="505" />
            </Array>
          </mxGeometry>
        </mxCell>
        <mxCell id="8Foohfjr51xUMp0vrfl8-40" style="edgeStyle=orthogonalEdgeStyle;rounded=0;orthogonalLoop=1;jettySize=auto;html=1;" parent="1" source="8Foohfjr51xUMp0vrfl8-23" target="8Foohfjr51xUMp0vrfl8-34" edge="1">
          <mxGeometry relative="1" as="geometry" />
        </mxCell>
        <mxCell id="8Foohfjr51xUMp0vrfl8-23" value="&lt;font style=&quot;vertical-align: inherit;&quot;&gt;&lt;font style=&quot;vertical-align: inherit;&quot;&gt;&lt;font style=&quot;vertical-align: inherit;&quot;&gt;&lt;font style=&quot;vertical-align: inherit;&quot;&gt;Detalhes Validados?&lt;/font&gt;&lt;/font&gt;&lt;/font&gt;&lt;/font&gt;" style="rhombus;whiteSpace=wrap;html=1;fontColor=#000000;fillColor=#ffffc0;strokeColor=#ff0000;" parent="1" vertex="1">
          <mxGeometry x="440" y="860" width="90" height="50" as="geometry" />
        </mxCell>
        <mxCell id="8Foohfjr51xUMp0vrfl8-25" value="&lt;font style=&quot;vertical-align: inherit;&quot;&gt;&lt;font style=&quot;vertical-align: inherit;&quot;&gt;no&lt;/font&gt;&lt;/font&gt;" style="edgeStyle=orthogonalEdgeStyle;html=1;align=left;verticalAlign=top;endArrow=open;endSize=8;strokeColor=#ff0000;rounded=0;entryX=0.5;entryY=0;entryDx=0;entryDy=0;" parent="1" source="8Foohfjr51xUMp0vrfl8-23" edge="1" target="8Foohfjr51xUMp0vrfl8-27">
          <mxGeometry x="-1" relative="1" as="geometry">
            <mxPoint x="480" y="960" as="targetPoint" />
          </mxGeometry>
        </mxCell>
        <mxCell id="8Foohfjr51xUMp0vrfl8-47" style="edgeStyle=orthogonalEdgeStyle;rounded=0;orthogonalLoop=1;jettySize=auto;html=1;entryX=0;entryY=0.5;entryDx=0;entryDy=0;" parent="1" source="8Foohfjr51xUMp0vrfl8-27" target="8Foohfjr51xUMp0vrfl8-29" edge="1">
          <mxGeometry relative="1" as="geometry" />
        </mxCell>
        <mxCell id="8Foohfjr51xUMp0vrfl8-27" value="&lt;font style=&quot;vertical-align: inherit;&quot;&gt;&lt;font style=&quot;vertical-align: inherit;&quot;&gt;Mensagem validaÃ§Ã£o&lt;/font&gt;&lt;/font&gt;" style="rounded=1;whiteSpace=wrap;html=1;arcSize=40;fontColor=#000000;fillColor=#ffffc0;strokeColor=#ff0000;" parent="1" vertex="1">
          <mxGeometry x="425" y="980" width="120" height="40" as="geometry" />
        </mxCell>
        <mxCell id="8Foohfjr51xUMp0vrfl8-46" style="edgeStyle=orthogonalEdgeStyle;rounded=0;orthogonalLoop=1;jettySize=auto;html=1;entryX=0.408;entryY=1.025;entryDx=0;entryDy=0;entryPerimeter=0;" parent="1" source="8Foohfjr51xUMp0vrfl8-29" target="8Foohfjr51xUMp0vrfl8-32" edge="1">
          <mxGeometry relative="1" as="geometry" />
        </mxCell>
        <mxCell id="8Foohfjr51xUMp0vrfl8-51" style="edgeStyle=orthogonalEdgeStyle;rounded=0;orthogonalLoop=1;jettySize=auto;html=1;entryX=1;entryY=0.5;entryDx=0;entryDy=0;exitX=0;exitY=0;exitDx=0;exitDy=0;" parent="1" source="8Foohfjr51xUMp0vrfl8-29" target="8Foohfjr51xUMp0vrfl8-18" edge="1">
          <mxGeometry relative="1" as="geometry">
            <Array as="points">
              <mxPoint x="660" y="975" />
              <mxPoint x="660" y="930" />
              <mxPoint x="600" y="930" />
              <mxPoint x="600" y="750" />
            </Array>
          </mxGeometry>
        </mxCell>
        <mxCell id="8Foohfjr51xUMp0vrfl8-29" value="&lt;font style=&quot;vertical-align: inherit;&quot;&gt;&lt;font style=&quot;vertical-align: inherit;&quot;&gt;Tentar Novamente?&lt;/font&gt;&lt;/font&gt;" style="rhombus;whiteSpace=wrap;html=1;fontColor=#000000;fillColor=#ffffc0;strokeColor=#ff0000;" parent="1" vertex="1">
          <mxGeometry x="640" y="960" width="100" height="60" as="geometry" />
        </mxCell>
        <mxCell id="8Foohfjr51xUMp0vrfl8-45" style="edgeStyle=orthogonalEdgeStyle;rounded=0;orthogonalLoop=1;jettySize=auto;html=1;entryX=1;entryY=0.5;entryDx=0;entryDy=0;" parent="1" source="8Foohfjr51xUMp0vrfl8-32" target="8Foohfjr51xUMp0vrfl8-42" edge="1">
          <mxGeometry relative="1" as="geometry">
            <Array as="points">
              <mxPoint x="770" y="560" />
              <mxPoint x="725" y="560" />
              <mxPoint x="725" y="465" />
            </Array>
          </mxGeometry>
        </mxCell>
        <mxCell id="8Foohfjr51xUMp0vrfl8-32" value="&lt;font style=&quot;vertical-align: inherit;&quot;&gt;&lt;font style=&quot;vertical-align: inherit;&quot;&gt;Cancelar&lt;/font&gt;&lt;/font&gt;" style="rounded=1;whiteSpace=wrap;html=1;arcSize=40;fontColor=#000000;fillColor=#ffffc0;strokeColor=#ff0000;" parent="1" vertex="1">
          <mxGeometry x="707" y="640" width="120" height="40" as="geometry" />
        </mxCell>
        <mxCell id="8Foohfjr51xUMp0vrfl8-34" value="&lt;font style=&quot;vertical-align: inherit;&quot;&gt;&lt;font style=&quot;vertical-align: inherit;&quot;&gt;Confirmar Pagamento&lt;/font&gt;&lt;/font&gt;" style="rounded=1;whiteSpace=wrap;html=1;arcSize=40;fontColor=#000000;fillColor=#ffffc0;strokeColor=#ff0000;" parent="1" vertex="1">
          <mxGeometry x="90" y="960" width="120" height="40" as="geometry" />
        </mxCell>
        <mxCell id="8Foohfjr51xUMp0vrfl8-35" value="" style="edgeStyle=orthogonalEdgeStyle;html=1;verticalAlign=bottom;endArrow=open;endSize=8;strokeColor=#ff0000;rounded=0;entryX=0.5;entryY=0;entryDx=0;entryDy=0;" parent="1" source="8Foohfjr51xUMp0vrfl8-34" target="8Foohfjr51xUMp0vrfl8-36" edge="1">
          <mxGeometry relative="1" as="geometry">
            <mxPoint x="150" y="1060" as="targetPoint" />
          </mxGeometry>
        </mxCell>
        <mxCell id="8Foohfjr51xUMp0vrfl8-44" style="edgeStyle=orthogonalEdgeStyle;rounded=0;orthogonalLoop=1;jettySize=auto;html=1;entryX=0.5;entryY=1;entryDx=0;entryDy=0;" parent="1" source="8Foohfjr51xUMp0vrfl8-36" target="8Foohfjr51xUMp0vrfl8-42" edge="1">
          <mxGeometry relative="1" as="geometry">
            <Array as="points">
              <mxPoint x="630" y="1120" />
              <mxPoint x="630" y="520" />
              <mxPoint x="690" y="520" />
            </Array>
          </mxGeometry>
        </mxCell>
        <mxCell id="8Foohfjr51xUMp0vrfl8-36" value="&lt;font style=&quot;vertical-align: inherit;&quot;&gt;&lt;font style=&quot;vertical-align: inherit;&quot;&gt;Imprimir fechamento&lt;/font&gt;&lt;/font&gt;" style="rounded=1;whiteSpace=wrap;html=1;arcSize=40;fontColor=#000000;fillColor=#ffffc0;strokeColor=#ff0000;" parent="1" vertex="1">
          <mxGeometry x="60" y="1100" width="120" height="40" as="geometry" />
        </mxCell>
        <mxCell id="8Foohfjr51xUMp0vrfl8-42" value="" style="ellipse;html=1;shape=endState;fillColor=#000000;strokeColor=#ff0000;" parent="1" vertex="1">
          <mxGeometry x="675" y="450" width="30" height="30" as="geometry" />
        </mxCell>
        <mxCell id="8Foohfjr51xUMp0vrfl8-50" value="&lt;font style=&quot;vertical-align: inherit;&quot;&gt;&lt;font style=&quot;vertical-align: inherit;&quot;&gt;no&lt;/font&gt;&lt;/font&gt;" style="text;html=1;align=center;verticalAlign=middle;resizable=0;points=[];autosize=1;strokeColor=none;fillColor=none;" parent="1" vertex="1">
          <mxGeometry x="210" y="598" width="40" height="30" as="geometry" />
        </mxCell>
        <mxCell id="8Foohfjr51xUMp0vrfl8-52" value="&lt;font style=&quot;vertical-align: inherit;&quot;&gt;&lt;font style=&quot;vertical-align: inherit;&quot;&gt;no&lt;/font&gt;&lt;/font&gt;" style="text;html=1;align=center;verticalAlign=middle;resizable=0;points=[];autosize=1;strokeColor=none;fillColor=none;" parent="1" vertex="1">
          <mxGeometry x="680" y="928" width="40" height="30" as="geometry" />
        </mxCell>
        <mxCell id="8Foohfjr51xUMp0vrfl8-53" value="&lt;font style=&quot;vertical-align: inherit;&quot;&gt;&lt;font style=&quot;vertical-align: inherit;&quot;&gt;sim&lt;/font&gt;&lt;/font&gt;" style="text;html=1;align=center;verticalAlign=middle;resizable=0;points=[];autosize=1;strokeColor=none;fillColor=none;" parent="1" vertex="1">
          <mxGeometry x="600" y="938" width="40" height="30" as="geometry" />
        </mxCell>
        <mxCell id="8Foohfjr51xUMp0vrfl8-54" value="&lt;font style=&quot;vertical-align: inherit;&quot;&gt;&lt;font style=&quot;vertical-align: inherit;&quot;&gt;sim&lt;/font&gt;&lt;/font&gt;" style="text;html=1;align=center;verticalAlign=middle;resizable=0;points=[];autosize=1;strokeColor=none;fillColor=none;" parent="1" vertex="1">
          <mxGeometry x="420" y="888" width="40" height="30" as="geometry" />
        </mxCell>
      </root>
    </mxGraphModel>
  </diagram>
</mxfile>
